Coordinates
version=1
nRows=19
nColumns=33
inDegrees=yes

Units are S.I. units (second, meters, Newtons, ...)
Angles are in degrees.

endheader
time	ground_thorax_rot_x	ground_thorax_rot_y	ground_thorax_rot_z	ground_thorax_tx	ground_thorax_ty	ground_thorax_tz	clav_prot_r	clav_elev_r	scapula_abduction_r	scapula_elevation_r	scapula_upward_rot_r	scapula_winging_r	shoulder_elv_r	plane_of_elev_r	axial_rot_r	elbow_flexion_r	pro_sup_r	wrist_flex_r	wrist_dev_r	clav_prot_l	clav_elev_l	scapula_abduction_l	scapula_elevation_l	scapula_upward_rot_l	scapula_winging_l	shoulder_elv_l	plane_of_elev_l	axial_rot_l	elbow_flexion_l	pro_sup_l	wrist_flex_l	wrist_dev_l
      5.45000000	    -90.00000000	     90.00000000	    -90.00000000	     13.21174201	    822.39782367	    -42.27100894	     28.39439356	     36.74078874	     45.00000000	     45.00000000	     11.61700459	   1772.81589802	    107.91753539	     28.68203127	    -55.71494757	   2518.77504199	    164.80416921	     12.12723281	     16.01559715	    -45.00000000	     25.59038710	     42.40727814	    -18.36561976	     45.00000000	   4427.57403060	  -4203.97892852	     18.33358177	   -147.22518617	   1790.21161974	     45.09440356	     14.31989303	    -17.35485834
      5.46000000	    -90.00000000	     90.00000000	    -90.00000000	     17.28551871	    819.72267182	    -42.20608429	     28.20668694	     36.87405597	     45.00000000	     45.00000000	     11.44352526	   1772.24909133	    107.78758327	     28.73474219	    -56.28515818	   2518.89153303	    165.41245131	     11.99488802	     15.93696943	    -45.00000000	     25.94612251	     42.70657656	    -18.74478477	     45.00000000	   4427.83451656	  -4204.09564908	     18.28366476	   -146.75005692	   1790.15947208	     45.26337135	     14.24203828	    -17.04108543
      5.47000000	    -90.00000000	     90.00000000	    -90.00000000	     21.35671371	    816.97312316	    -42.12330319	     28.04239040	     37.04544049	     45.00000000	     45.00000000	     11.38892928	   1771.66408717	    107.60274674	     28.77425231	    -56.84445943	   2518.97823711	    166.08869120	     11.94210873	     15.80768659	    -45.00000000	     26.71806465	     42.99361938	    -18.91130593	     45.00000000	   4427.75540364	  -4203.94104404	     18.13646997	   -146.28858875	   1790.31791790	     45.37977036	     14.05897597	    -16.81786547
      5.48000000	    -90.00000000	     90.00000000	    -90.00000000	     25.41046714	    814.16198908	    -42.02289236	     27.82175314	     37.17166168	     45.00000000	     45.00000000	     11.31893341	   1771.07723478	    107.51474961	     28.84785891	    -57.31107553	   2519.02783751	    166.68862071	     11.86897281	     15.72187098	    -45.00000000	     27.04337413	     43.16871550	    -19.27456768	     45.00000000	   4428.08541921	  -4204.01851610	     18.10105724	   -145.95791412	   1790.18460217	     45.54458415	     14.01997055	    -16.54022560
      5.49000000	    -90.00000000	     90.00000000	    -90.00000000	     29.42912007	    811.30689452	    -41.90531780	     27.62147445	     37.32827183	     45.00000000	     45.00000000	     11.23739329	   1770.47777905	    107.38419360	     28.93737314	    -57.62770879	   2519.15037095	    167.26213574	     11.80904606	     15.58940535	    -45.00000000	     27.58226846	     43.43119903	    -19.55867851	     45.00000000	   4428.16947907	  -4203.98333632	     18.03132073	   -145.65813805	   1790.22126495	     45.64980956	     13.88088875	    -16.30445952
      5.50000000	    -90.00000000	     90.00000000	    -90.00000000	     33.40410705	    808.42282143	    -41.77131538	     27.39665678	     37.47890928	     45.00000000	     45.00000000	     11.11810651	   1769.88307089	    107.30331944	     29.02999536	    -57.85685018	   2519.32043075	    167.77301248	     11.72542319	     15.47385986	    -45.00000000	     28.16891858	     43.68280354	    -19.89933452	     45.00000000	   4428.35812786	  -4204.04313510	     18.02371701	   -145.51967629	   1790.18249779	     45.74012836	     13.80307223	    -16.09006321
      5.51000000	    -90.00000000	     90.00000000	    -90.00000000	     37.31777419	    805.53476608	    -41.62164488	     27.17151131	     37.61793347	     45.00000000	     45.00000000	     11.04430717	   1769.27671539	    107.23791735	     29.16673745	    -58.00780650	   2519.41042659	    168.19097432	     11.67255778	     15.35191262	    -45.00000000	     28.59376397	     43.86486742	    -20.28383167	     45.00000000	   4428.62088268	  -4204.08871532	     18.02852449	   -145.41548387	   1790.13731648	     45.80636669	     13.69943066	    -15.84902898
      5.52000000	    -90.00000000	     90.00000000	    -90.00000000	     41.15317868	    802.67078273	    -41.45721409	     26.95608193	     37.76751045	     45.00000000	     45.00000000	     11.03479010	   1768.68839179	    107.23363708	     29.30100182	    -58.01348486	   2519.57726321	    168.53600585	     11.61599094	     15.20971616	    -45.00000000	     29.24508831	     44.14542869	    -20.59377537	     45.00000000	   4428.71565659	  -4204.08464209	     18.02363631	   -145.41749994	   1790.12593300	     45.82849061	     13.57882802	    -15.64397908
      5.53000000	    -90.00000000	     90.00000000	    -90.00000000	     44.89377111	    799.85876569	    -41.27751829	     26.73353414	     37.88827708	     45.00000000	     45.00000000	     10.86547241	   1768.11308241	    107.16561208	     29.45535098	    -57.92976552	   2519.69737963	    168.76755032	     11.56213457	     15.07122556	    -45.00000000	     29.76715714	     44.33876479	    -20.97099576	     45.00000000	   4428.94263242	  -4204.13174541	     18.06620009	   -145.50415204	   1790.07747314	     45.82350107	     13.48138051	    -15.43481760
      5.54000000	    -90.00000000	     90.00000000	    -90.00000000	     48.52089308	    797.12855372	    -41.08316837	     26.51736193	     38.02844208	     45.00000000	     45.00000000	     10.78090128	   1767.55140380	    107.14983916	     29.63123971	    -57.69388057	   2519.82214293	    168.90727712	     11.52216625	     14.92036185	    -45.00000000	     30.34125005	     44.56432331	    -21.31023678	     45.00000000	   4429.10029501	  -4204.15595286	     18.12378511	   -145.65936054	   1790.04468572	     45.77774509	     13.35699708	    -15.22396836
      5.55000000	    -90.00000000	     90.00000000	    -90.00000000	     52.01808517	    794.50742355	    -40.87627334	     26.31007274	     38.14160349	     45.00000000	     45.00000000	     10.68667888	   1767.00904398	    107.15811533	     29.82086493	    -57.36419528	   2519.92479798	    168.94029672	     11.49336253	     14.75890994	    -45.00000000	     30.91436538	     44.74567925	    -21.66101411	     45.00000000	   4429.29418734	  -4204.15937459	     18.19894627	   -145.88650516	   1790.02353360	     45.69533978	     13.23140192	    -15.02657624
      5.56000000	    -90.00000000	     90.00000000	    -90.00000000	     55.36590179	    792.02519579	    -40.66301058	     26.10955142	     38.25031082	     45.00000000	     45.00000000	     10.56475823	   1766.49349669	    107.19030715	     30.01364972	    -56.92115102	   2520.04975070	    168.89079921	     11.45550063	     14.60071663	    -45.00000000	     31.44792809	     44.89723822	    -22.06496932	     45.00000000	   4429.50616381	  -4204.23003968	     18.26186613	   -146.17439171	   1789.99889702	     45.58569551	     13.12111659	    -14.84873318
      5.57000000	    -90.00000000	     90.00000000	    -90.00000000	     58.55314573	    789.70264639	    -40.45114739	     25.93104638	     38.35156715	     45.00000000	     45.00000000	     10.50375632	   1766.02081948	    107.25022633	     30.21760252	    -56.37898378	   2520.16819767	    168.75802302	     11.43555412	     14.41129498	    -45.00000000	     32.08013696	     45.00000000	    -22.39466766	     45.00000000	   4429.65542102	  -4204.13983541	     18.28156019	   -146.49541576	   1789.95934874	     45.45545117	     12.99043989	    -14.67638337
      5.58000000	    -90.00000000	     90.00000000	    -90.00000000	     61.55493119	    787.56851794	    -40.25216794	     25.75357706	     38.40177893	     45.00000000	     45.00000000	     10.31105411	   1765.52690899	    107.32523027	     30.45633208	    -55.78821024	   2520.23412337	    168.58626122	     11.42375583	     14.22653547	    -45.00000000	     32.43756189	     45.00000000	    -22.82860607	     45.00000000	   4430.04860347	  -4204.22584710	     18.45902808	   -146.91722390	   1789.95864826	     45.31283917	     12.85303019	    -14.49640331
      5.59000000	    -90.00000000	     90.00000000	    -90.00000000	     64.36163330	    785.63508069	    -40.07714688	     25.59902125	     38.48790248	     45.00000000	     45.00000000	     10.25043762	   1765.14913299	    107.42102934	     30.63813133	    -55.12379935	   2520.32325851	    168.38090886	     11.40719463	     14.05419983	    -45.00000000	     32.93524485	     45.00000000	    -23.17688077	     45.00000000	   4430.27143405	  -4204.17976704	     18.51587006	   -147.28693064	   1789.90585605	     45.15894972	     12.74138414	    -14.35950568
      5.60000000	    -90.00000000	     90.00000000	    -90.00000000	     66.95180661	    783.91719521	    -39.93719502	     25.46055258	     38.52740268	     45.00000000	     45.00000000	     10.10965122	   1764.78015548	    107.52340527	     30.83419745	    -54.44994259	   2520.39733675	    168.16159108	     11.39464198	     13.87019908	    -45.00000000	     33.42188578	     45.00000000	    -23.52523252	     45.00000000	   4430.52140196	  -4204.19458440	     18.62603056	   -147.73713118	   1789.88016988	     44.99961591	     12.63408433	    -14.24541183
      5.61000000	    -90.00000000	     90.00000000	    -90.00000000	     69.31386866	    782.41454586	    -39.83951880	     25.33959445	     38.56650170	     45.00000000	     45.00000000	      9.96382264	   1764.44235169	    107.62055409	     31.02956606	    -53.77279484	   2520.46373880	    167.94654909	     11.38518740	     13.68785948	    -45.00000000	     33.85655874	     45.00000000	    -23.83860631	     45.00000000	   4430.73408248	  -4204.24359417	     18.73937505	   -148.18188126	   1789.86424161	     44.84429750	     12.51060316	    -14.13638847
      5.62000000	    -90.00000000	     90.00000000	    -90.00000000	     71.43622347	    781.12195926	    -39.79037385	     25.24227173	     38.61469308	     45.00000000	     45.00000000	      9.85439557	   1764.15969457	    107.69637511	     31.17664271	    -53.08760241	   2520.54646072	    167.72162448	     11.37487811	     13.50592467	    -45.00000000	     34.25623180	     45.00000000	    -24.05370433	     45.00000000	   4430.82752940	  -4204.17035211	     18.75489144	   -148.53821141	   1789.89113321	     44.68372253	     12.37672588	    -14.05366537
      5.63000000	    -90.00000000	     90.00000000	    -90.00000000	     73.31333590	    780.02626005	    -39.79161665	     25.15459273	     38.58094600	     45.00000000	     45.00000000	      9.72383854	   1763.88560843	    107.85247409	     31.38577274	    -52.36944482	   2520.60435087	    167.54768031	     11.37194140	     13.34766871	    -45.00000000	     34.56088022	     45.00000000	    -24.32513383	     45.00000000	   4431.03499654	  -4204.30811484	     18.93235671	   -148.98911134	   1789.85599068	     44.54685615	     12.29457770	    -14.00039915
